<?xml version="1.0" encoding="iso-8859-1"?>
<!-- Generator: Adobe Illustrator 30.3.0, SVG Export Plug-In . SVG Version: 9.03 Build 0)  -->
<svg version="1.1" xmlns="http://www.w3.org/2000/svg" xmlns:xlink="http://www.w3.org/1999/xlink" x="0px" y="0px"
	 viewBox="0 0 1920 1080" style="enable-background:new 0 0 1920 1080;" xml:space="preserve">
<g id="Layer_2" style="display:none;">
	<linearGradient id="SVGID_1_" gradientUnits="userSpaceOnUse" x1="8.75" y1="574.5" x2="1920.25" y2="574.5">
		<stop  offset="0" style="stop-color:#FF7BAC"/>
		<stop  offset="0.0704" style="stop-color:#E06A98"/>
		<stop  offset="0.1995" style="stop-color:#AD4E77"/>
		<stop  offset="0.3312" style="stop-color:#82365B"/>
		<stop  offset="0.4632" style="stop-color:#5E2344"/>
		<stop  offset="0.5956" style="stop-color:#421332"/>
		<stop  offset="0.7287" style="stop-color:#2F0925"/>
		<stop  offset="0.8629" style="stop-color:#23021E"/>
		<stop  offset="1" style="stop-color:#1F001B"/>
	</linearGradient>
	
		<rect x="9" y="69" style="display:inline;fill:#FFF4D4;stroke:url(#SVGID_1_);stroke-width:0.5;stroke-miterlimit:10;" width="1911" height="1011"/>
</g>
<g id="Layer_1">
	<g id="bgc" style="display:none;">
		
			<linearGradient id="SVGID_00000057847552280121065910000013238264968173970590_" gradientUnits="userSpaceOnUse" x1="-5" y1="537.139" x2="1925" y2="537.139" gradientTransform="matrix(1 0 0 -1 0 1080)">
			<stop  offset="0" style="stop-color:#FF7BAC"/>
			<stop  offset="0.0704" style="stop-color:#E06A98"/>
			<stop  offset="0.1995" style="stop-color:#AD4E77"/>
			<stop  offset="0.3312" style="stop-color:#82365B"/>
			<stop  offset="0.4632" style="stop-color:#5E2344"/>
			<stop  offset="0.5956" style="stop-color:#421332"/>
			<stop  offset="0.7287" style="stop-color:#2F0925"/>
			<stop  offset="0.8629" style="stop-color:#23021E"/>
			<stop  offset="1" style="stop-color:#1F001B"/>
		</linearGradient>
		
			<rect style="display:inline;fill:#EDE2AE;stroke:url(#SVGID_00000057847552280121065910000013238264968173970590_);stroke-width:10;stroke-miterlimit:10;" width="1920" height="1085.722"/>
	</g>
	<g id="Layer_3" style="display:none;">
		
			<linearGradient id="SVGID_00000085249411861010617810000007635090428330007198_" gradientUnits="userSpaceOnUse" x1="-0.25" y1="542.8355" x2="1920.25" y2="542.8355" gradientTransform="matrix(1 0 0 -1 0 1080)">
			<stop  offset="0" style="stop-color:#FF7BAC"/>
			<stop  offset="0.0704" style="stop-color:#E06A98"/>
			<stop  offset="0.1995" style="stop-color:#AD4E77"/>
			<stop  offset="0.3312" style="stop-color:#82365B"/>
			<stop  offset="0.4632" style="stop-color:#5E2344"/>
			<stop  offset="0.5956" style="stop-color:#421332"/>
			<stop  offset="0.7287" style="stop-color:#2F0925"/>
			<stop  offset="0.8629" style="stop-color:#23021E"/>
			<stop  offset="1" style="stop-color:#1F001B"/>
		</linearGradient>
		
			<rect style="display:inline;fill:#550026;stroke:url(#SVGID_00000085249411861010617810000007635090428330007198_);stroke-width:0.5;stroke-miterlimit:10;" width="1920" height="1074.329"/>
	</g>
	<g id="Layer_4">
		
			<linearGradient id="SVGID_00000114031295606737021520000003526449344391744140_" gradientUnits="userSpaceOnUse" x1="-0.25" y1="540" x2="1920.25" y2="540" gradientTransform="matrix(1 0 0 -1 0 1080)">
			<stop  offset="0" style="stop-color:#FF7BAC"/>
			<stop  offset="0.0704" style="stop-color:#E06A98"/>
			<stop  offset="0.1995" style="stop-color:#AD4E77"/>
			<stop  offset="0.3312" style="stop-color:#82365B"/>
			<stop  offset="0.4632" style="stop-color:#5E2344"/>
			<stop  offset="0.5956" style="stop-color:#421332"/>
			<stop  offset="0.7287" style="stop-color:#2F0925"/>
			<stop  offset="0.8629" style="stop-color:#23021E"/>
			<stop  offset="1" style="stop-color:#1F001B"/>
		</linearGradient>
		
			<rect style="fill:#FFF4D4;stroke:url(#SVGID_00000114031295606737021520000003526449344391744140_);stroke-width:0.5;stroke-miterlimit:10;" width="1920" height="1080"/>
	</g>
	<g id="Layer_1_00000138541135484950053000000005278799247492048811_">
		<g>
			
				<linearGradient id="SVGID_00000028324449974722941970000014181338827820206481_" gradientUnits="userSpaceOnUse" x1="360.132" y1="608.5985" x2="450.221" y2="608.5985" gradientTransform="matrix(1 0 0 -1 0 1080)">
				<stop  offset="0" style="stop-color:#FF7BAC"/>
				<stop  offset="0.0704" style="stop-color:#E06A98"/>
				<stop  offset="0.1995" style="stop-color:#AD4E77"/>
				<stop  offset="0.3312" style="stop-color:#82365B"/>
				<stop  offset="0.4632" style="stop-color:#5E2344"/>
				<stop  offset="0.5956" style="stop-color:#421332"/>
				<stop  offset="0.7287" style="stop-color:#2F0925"/>
				<stop  offset="0.8629" style="stop-color:#23021E"/>
				<stop  offset="1" style="stop-color:#1F001B"/>
			</linearGradient>
			
				<path style="fill:#FF7BAC;stroke:url(#SVGID_00000028324449974722941970000014181338827820206481_);stroke-width:10;stroke-miterlimit:10;" d="
				M400.405,402.136h9.126v39.478h31.685v11.074h-31.685v61.011c0,4.034,1.029,7.162,3.087,9.383
				c2.059,2.222,4.77,3.332,8.133,3.332c9.606,0,14.686-8.921,15.235-26.763h9.126c-0.205,9.503-1.709,17.142-4.512,22.918
				c-2.804,5.777-6.819,10.237-12.048,13.381s-11.125,4.717-17.688,4.717c-5.742,0-10.715-1.163-14.919-3.486
				s-7.554-5.793-10.049-10.407c-2.496-4.614-3.743-9.621-3.743-15.022V452.69h-17.021v-9.434
				c10.42-1.366,18.543-5.365,24.372-11.997C395.331,424.628,398.965,414.921,400.405,402.136z"/>
			
				<linearGradient id="SVGID_00000165202425048562009970000008326420865682063509_" gradientUnits="userSpaceOnUse" x1="455.39" y1="591.5265" x2="581.5834" y2="591.5265" gradientTransform="matrix(1 0 0 -1 0 1080)">
				<stop  offset="0" style="stop-color:#FF7BAC"/>
				<stop  offset="0.0704" style="stop-color:#E06A98"/>
				<stop  offset="0.1995" style="stop-color:#AD4E77"/>
				<stop  offset="0.3312" style="stop-color:#82365B"/>
				<stop  offset="0.4632" style="stop-color:#5E2344"/>
				<stop  offset="0.5956" style="stop-color:#421332"/>
				<stop  offset="0.7287" style="stop-color:#2F0925"/>
				<stop  offset="0.8629" style="stop-color:#23021E"/>
				<stop  offset="1" style="stop-color:#1F001B"/>
			</linearGradient>
			
				<path style="fill:#FF7BAC;stroke:url(#SVGID_00000165202425048562009970000008326420865682063509_);stroke-width:10;stroke-miterlimit:10;" d="
				M570.62,525.696l4.307,7.383c-4.17,2.871-7.913,4.853-11.228,5.947c-3.316,1.093-6.957,1.641-10.92,1.641
				c-5.88,0-10.63-1.248-14.253-3.742c-3.624-2.495-6.939-7.194-9.946-14.1c-6.973,6.905-13.228,11.604-18.765,14.1
				c-5.537,2.494-11.792,3.742-18.765,3.742c-9.639,0-17.159-2.223-22.559-6.665c-5.401-4.442-8.101-10.082-8.101-16.919
				c0-10.321,4.989-18.593,14.971-24.814c7.998-4.922,25.532-9.844,52.603-14.766V463.66c0-5.468-1.812-9.929-5.435-13.381
				c-3.624-3.451-8.477-5.179-14.561-5.179c-4.649,0-8.751,0.992-12.305,2.974c-2.394,1.3-3.589,2.599-3.589,3.896
				c0,0.685,0.444,1.71,1.333,3.076c1.913,3.076,2.871,6.119,2.871,9.126c0,3.829-1.266,6.922-3.794,9.28
				c-2.53,2.358-5.914,3.537-10.151,3.537c-4.512,0-8.136-1.281-10.869-3.845c-2.735-2.563-4.102-5.861-4.102-9.896
				c0-6.63,3.589-12.475,10.767-17.534c8.955-6.288,20.098-9.434,33.428-9.434c10.049,0,18.97,1.573,26.763,4.717
				c4.989,1.983,9.04,5.452,12.151,10.408c3.11,4.957,4.666,11.058,4.666,18.303v48.706c0,3.691,0.683,6.357,2.051,7.998
				c1.367,1.641,3.246,2.461,5.64,2.461C564.809,528.875,567.406,527.816,570.62,525.696z M527.964,486.423
				c-14.629,1.983-24.524,5.042-29.685,9.178c-5.162,4.137-7.742,9.587-7.742,16.354c0,4.786,1.213,8.46,3.64,11.023
				c2.426,2.563,5.827,3.845,10.203,3.845c6.768,0,12.39-2.426,16.868-7.28c4.477-4.853,6.716-11.484,6.716-19.893V486.423z"/>
			
				<linearGradient id="SVGID_00000117663706199617894300000001636065292133813684_" gradientUnits="userSpaceOnUse" x1="580.8969" y1="619.493" x2="719.892" y2="619.493" gradientTransform="matrix(1 0 0 -1 0 1080)">
				<stop  offset="0" style="stop-color:#FF7BAC"/>
				<stop  offset="0.0704" style="stop-color:#E06A98"/>
				<stop  offset="0.1995" style="stop-color:#AD4E77"/>
				<stop  offset="0.3312" style="stop-color:#82365B"/>
				<stop  offset="0.4632" style="stop-color:#5E2344"/>
				<stop  offset="0.5956" style="stop-color:#421332"/>
				<stop  offset="0.7287" style="stop-color:#2F0925"/>
				<stop  offset="0.8629" style="stop-color:#23021E"/>
				<stop  offset="1" style="stop-color:#1F001B"/>
			</linearGradient>
			
				<path style="fill:#FF7BAC;stroke:url(#SVGID_00000117663706199617894300000001636065292133813684_);stroke-width:10;stroke-miterlimit:10;" d="
				M585.898,385.935l45.323-2.256v74.648c6.902-8.476,13.26-14.269,19.072-17.38c5.809-3.11,12.166-4.666,19.072-4.666
				c9.568,0,16.883,2.906,21.943,8.716c5.742,6.7,8.613,16.168,8.613,28.403v45.527c0,3.146,0.713,5.452,2.139,6.922
				c1.426,1.471,3.496,2.204,6.211,2.204h6.621v9.536H657.06v-9.536h6.254c3.486,0,5.846-0.648,7.076-1.948
				c1.707-1.708,2.562-4.102,2.562-7.178V474.22c0-6.425-1.727-11.535-5.178-15.329c-3.453-3.794-7.777-5.691-12.971-5.691
				c-6.428,0-11.965,2.701-16.611,8.101c-4.65,5.401-6.973,12.75-6.973,22.046v35.581c0,3.076,0.732,5.367,2.205,6.87
				c1.469,1.505,3.57,2.256,6.305,2.256h6.973v9.536h-59.677v-9.536h8.306c2.938,0,5.16-0.785,6.664-2.358
				c1.504-1.571,2.256-3.827,2.256-6.768V406.033c0-3.281-1.043-5.86-3.127-7.741c-2.086-1.88-4.871-2.82-8.357-2.82h-6.87v-9.537
				H585.898z"/>
			
				<linearGradient id="SVGID_00000006710294640812765990000014180060362189369245_" gradientUnits="userSpaceOnUse" x1="720.351" y1="590.757" x2="794.54" y2="590.757" gradientTransform="matrix(1 0 0 -1 0 1080)">
				<stop  offset="0" style="stop-color:#FF7BAC"/>
				<stop  offset="0.0704" style="stop-color:#E06A98"/>
				<stop  offset="0.1995" style="stop-color:#AD4E77"/>
				<stop  offset="0.3312" style="stop-color:#82365B"/>
				<stop  offset="0.4632" style="stop-color:#5E2344"/>
				<stop  offset="0.5956" style="stop-color:#421332"/>
				<stop  offset="0.7287" style="stop-color:#2F0925"/>
				<stop  offset="0.8629" style="stop-color:#23021E"/>
				<stop  offset="1" style="stop-color:#1F001B"/>
			</linearGradient>
			
				<path style="fill:#FF7BAC;stroke:url(#SVGID_00000006710294640812765990000014180060362189369245_);stroke-width:10;stroke-miterlimit:10;" d="
				M725.351,479.553h64.189v19.38h-64.189V479.553z"/>
			
				<linearGradient id="SVGID_00000022523364230498790440000015474298179543379338_" gradientUnits="userSpaceOnUse" x1="794.589" y1="619.494" x2="864.78" y2="619.494" gradientTransform="matrix(1 0 0 -1 0 1080)">
				<stop  offset="0" style="stop-color:#FF7BAC"/>
				<stop  offset="0.0704" style="stop-color:#E06A98"/>
				<stop  offset="0.1995" style="stop-color:#AD4E77"/>
				<stop  offset="0.3312" style="stop-color:#82365B"/>
				<stop  offset="0.4632" style="stop-color:#5E2344"/>
				<stop  offset="0.5956" style="stop-color:#421332"/>
				<stop  offset="0.7287" style="stop-color:#2F0925"/>
				<stop  offset="0.8629" style="stop-color:#23021E"/>
				<stop  offset="1" style="stop-color:#1F001B"/>
			</linearGradient>
			
				<path style="fill:#FF7BAC;stroke:url(#SVGID_00000022523364230498790440000015474298179543379338_);stroke-width:10;stroke-miterlimit:10;" d="
				M799.589,385.935l45.015-2.256v136.479c0,2.461,0.785,4.394,2.358,5.794c1.571,1.401,3.827,2.102,6.768,2.102h6.05v9.536h-57.832
				v-9.536h6.562c3.007,0,5.245-0.803,6.717-2.411c1.469-1.606,2.204-4.054,2.204-7.338V406.143c0-3.487-0.958-6.173-2.871-8.054
				c-1.915-1.881-4.512-2.823-7.793-2.823h-7.178V385.935z"/>
			
				<linearGradient id="SVGID_00000132795981443908913000000014755070413850441130_" gradientUnits="userSpaceOnUse" x1="871.698" y1="591.8345" x2="983.5034" y2="591.8345" gradientTransform="matrix(1 0 0 -1 0 1080)">
				<stop  offset="0" style="stop-color:#FF7BAC"/>
				<stop  offset="0.0704" style="stop-color:#E06A98"/>
				<stop  offset="0.1995" style="stop-color:#AD4E77"/>
				<stop  offset="0.3312" style="stop-color:#82365B"/>
				<stop  offset="0.4632" style="stop-color:#5E2344"/>
				<stop  offset="0.5956" style="stop-color:#421332"/>
				<stop  offset="0.7287" style="stop-color:#2F0925"/>
				<stop  offset="0.8629" style="stop-color:#23021E"/>
				<stop  offset="1" style="stop-color:#1F001B"/>
			</linearGradient>
			
				<path style="fill:#FF7BAC;stroke:url(#SVGID_00000132795981443908913000000014755070413850441130_);stroke-width:10;stroke-miterlimit:10;" d="
				M975.444,490.217h-67.266c0.205,13.468,2.918,23.396,8.138,29.788c5.22,6.393,11.925,9.587,20.115,9.587
				c5.869,0,11.432-1.641,16.687-4.922s10.646-9.229,16.174-17.842l7.485,4.614c-5.812,10.254-12.459,17.585-19.943,21.995
				c-7.486,4.408-16.63,6.613-27.43,6.613c-15.724,0-28.438-4.784-38.145-14.355c-9.708-9.569-14.561-21.841-14.561-36.812
				s4.887-27.48,14.663-37.529c9.774-10.049,21.771-15.073,35.991-15.073c9.844,0,18.303,2.018,25.379,6.05
				c7.074,4.034,12.576,9.931,16.508,17.688C973.171,467.779,975.239,477.845,975.444,490.217z M908.178,480.886h32.013
				c3,0,5.149-0.751,6.445-2.256c1.295-1.503,1.943-4.237,1.943-8.203c0-7.929-1.808-14.063-5.422-18.405
				c-3.615-4.341-8.216-6.512-13.808-6.512c-6.613,0-11.677,2.94-15.188,8.818C910.649,460.209,908.656,469.061,908.178,480.886z"/>
			
				<linearGradient id="SVGID_00000084499005278613052810000002762492731879251126_" gradientUnits="userSpaceOnUse" x1="992.2839" y1="591.8345" x2="1104.0892" y2="591.8345" gradientTransform="matrix(1 0 0 -1 0 1080)">
				<stop  offset="0" style="stop-color:#FF7BAC"/>
				<stop  offset="0.0704" style="stop-color:#E06A98"/>
				<stop  offset="0.1995" style="stop-color:#AD4E77"/>
				<stop  offset="0.3312" style="stop-color:#82365B"/>
				<stop  offset="0.4632" style="stop-color:#5E2344"/>
				<stop  offset="0.5956" style="stop-color:#421332"/>
				<stop  offset="0.7287" style="stop-color:#2F0925"/>
				<stop  offset="0.8629" style="stop-color:#23021E"/>
				<stop  offset="1" style="stop-color:#1F001B"/>
			</linearGradient>
			
				<path style="fill:#FF7BAC;stroke:url(#SVGID_00000084499005278613052810000002762492731879251126_);stroke-width:10;stroke-miterlimit:10;" d="
				M1096.03,490.217h-67.266c0.205,13.468,2.918,23.396,8.138,29.788c5.22,6.393,11.925,9.587,20.115,9.587
				c5.868,0,11.432-1.641,16.687-4.922s10.646-9.229,16.174-17.842l7.485,4.614c-5.812,10.254-12.459,17.585-19.943,21.995
				c-7.486,4.408-16.63,6.613-27.43,6.613c-15.724,0-28.438-4.784-38.145-14.355c-9.708-9.569-14.561-21.841-14.561-36.812
				s4.887-27.48,14.663-37.529c9.774-10.049,21.771-15.073,35.991-15.073c9.844,0,18.303,2.018,25.379,6.05
				c7.074,4.034,12.576,9.931,16.508,17.688C1093.757,467.779,1095.825,477.845,1096.03,490.217z M1028.765,480.886h32.013
				c3,0,5.148-0.751,6.444-2.256c1.295-1.503,1.943-4.237,1.943-8.203c0-7.929-1.808-14.063-5.422-18.405
				c-3.614-4.341-8.216-6.512-13.808-6.512c-6.613,0-11.677,2.94-15.188,8.818C1031.235,460.209,1029.242,469.061,1028.765,480.886z
				"/>
			
				<linearGradient id="SVGID_00000063630185514419692620000006520292393380716223_" gradientUnits="userSpaceOnUse" x1="1105.386" y1="590.757" x2="1179.575" y2="590.757" gradientTransform="matrix(1 0 0 -1 0 1080)">
				<stop  offset="0" style="stop-color:#FF7BAC"/>
				<stop  offset="0.0704" style="stop-color:#E06A98"/>
				<stop  offset="0.1995" style="stop-color:#AD4E77"/>
				<stop  offset="0.3312" style="stop-color:#82365B"/>
				<stop  offset="0.4632" style="stop-color:#5E2344"/>
				<stop  offset="0.5956" style="stop-color:#421332"/>
				<stop  offset="0.7287" style="stop-color:#2F0925"/>
				<stop  offset="0.8629" style="stop-color:#23021E"/>
				<stop  offset="1" style="stop-color:#1F001B"/>
			</linearGradient>
			
				<path style="fill:#FF7BAC;stroke:url(#SVGID_00000063630185514419692620000006520292393380716223_);stroke-width:10;stroke-miterlimit:10;" d="
				M1110.386,479.553h64.189v19.38h-64.189V479.553z"/>
			
				<linearGradient id="SVGID_00000129179115478084896710000000790887485388796301_" gradientUnits="userSpaceOnUse" x1="1180.5452" y1="590.6986" x2="1317.796" y2="590.6986" gradientTransform="matrix(1 0 0 -1 0 1080)">
				<stop  offset="0" style="stop-color:#FF7BAC"/>
				<stop  offset="0.0704" style="stop-color:#E06A98"/>
				<stop  offset="0.1995" style="stop-color:#AD4E77"/>
				<stop  offset="0.3312" style="stop-color:#82365B"/>
				<stop  offset="0.4632" style="stop-color:#5E2344"/>
				<stop  offset="0.5956" style="stop-color:#421332"/>
				<stop  offset="0.7287" style="stop-color:#2F0925"/>
				<stop  offset="0.8629" style="stop-color:#23021E"/>
				<stop  offset="1" style="stop-color:#1F001B"/>
			</linearGradient>
			
				<path style="fill:#FF7BAC;stroke:url(#SVGID_00000129179115478084896710000000790887485388796301_);stroke-width:10;stroke-miterlimit:10;" d="
				M1185.547,441.614l42.861-2.461v63.984c0,5.947,1.598,10.648,4.795,14.1c3.196,3.452,7.347,5.178,12.447,5.178
				c7.21,0,12.975-2.871,17.294-8.613c4.319-5.742,6.479-12.475,6.479-20.2v-31.377c0-3.691-1.025-6.493-3.076-8.408
				c-2.051-1.913-4.854-2.871-8.408-2.871h-4.717v-9.331l43.374-2.461v77.725c0,3.486,1.077,6.222,3.229,8.203
				c2.154,1.983,5.007,2.974,8.562,2.974h4.409v9.536l-39.785,1.23c-1.641-6.835-2.599-14.15-2.871-21.943
				c-6.612,8.408-12.985,14.322-19.119,17.739c-6.135,3.417-12.506,5.127-19.117,5.127c-6.543,0-12.048-1.368-16.512-4.102
				c-4.465-2.733-8.026-7.075-10.685-13.022s-3.986-13.158-3.986-21.636V462.84c0-4.169-1.061-7.16-3.179-8.972
				c-2.12-1.811-6.119-2.785-11.997-2.923v-9.331H1185.547z"/>
			
				<linearGradient id="SVGID_00000157279565313443625340000010784171817798109842_" gradientUnits="userSpaceOnUse" x1="1323.5883" y1="619.493" x2="1462.5822" y2="619.493" gradientTransform="matrix(1 0 0 -1 0 1080)">
				<stop  offset="0" style="stop-color:#FF7BAC"/>
				<stop  offset="0.0704" style="stop-color:#E06A98"/>
				<stop  offset="0.1995" style="stop-color:#AD4E77"/>
				<stop  offset="0.3312" style="stop-color:#82365B"/>
				<stop  offset="0.4632" style="stop-color:#5E2344"/>
				<stop  offset="0.5956" style="stop-color:#421332"/>
				<stop  offset="0.7287" style="stop-color:#2F0925"/>
				<stop  offset="0.8629" style="stop-color:#23021E"/>
				<stop  offset="1" style="stop-color:#1F001B"/>
			</linearGradient>
			
				<path style="fill:#FF7BAC;stroke:url(#SVGID_00000157279565313443625340000010784171817798109842_);stroke-width:10;stroke-miterlimit:10;" d="
				M1328.589,385.935l45.322-2.256v74.648c6.903-8.476,13.261-14.269,19.072-17.38c5.81-3.11,12.167-4.666,19.072-4.666
				c9.569,0,16.884,2.906,21.943,8.716c5.742,6.7,8.613,16.168,8.613,28.403v45.527c0,3.146,0.713,5.452,2.139,6.922
				c1.426,1.471,3.496,2.204,6.212,2.204h6.62v9.536h-57.832v-9.536h6.255c3.486,0,5.845-0.648,7.075-1.948
				c1.708-1.708,2.563-4.102,2.563-7.178V474.22c0-6.425-1.728-11.535-5.179-15.329c-3.452-3.794-7.776-5.691-12.971-5.691
				c-6.427,0-11.964,2.701-16.611,8.101c-4.649,5.401-6.973,12.75-6.973,22.046v35.581c0,3.076,0.733,5.367,2.205,6.87
				c1.469,1.505,3.57,2.256,6.306,2.256h6.973v9.536h-59.678v-9.536h8.306c2.938,0,5.16-0.785,6.665-2.358
				c1.503-1.571,2.256-3.827,2.256-6.768V406.033c0-3.281-1.043-5.86-3.128-7.741c-2.086-1.88-4.87-2.82-8.356-2.82h-6.87
				L1328.589,385.935L1328.589,385.935z"/>
		</g>
		<rect x="813.81" y="562.144" style="fill:none;" width="502.532" height="134.177"/>
		<g style="enable-background:new    ;">
			<path style="fill:#FF7BAC;" d="M832.755,570.94h4.346v18.799h15.088v5.273h-15.088v29.053c0,1.921,0.49,3.41,1.47,4.468
				c0.98,1.059,2.271,1.587,3.873,1.587c4.575,0,6.993-4.248,7.255-12.744h4.346c-0.098,4.525-0.814,8.163-2.148,10.913
				c-1.335,2.751-3.247,4.875-5.737,6.372s-5.298,2.246-8.423,2.246c-2.734,0-5.103-0.554-7.104-1.66s-3.597-2.759-4.785-4.956
				c-1.188-2.197-1.782-4.581-1.782-7.153v-28.125h-8.105v-4.492c4.962-0.65,8.83-2.555,11.606-5.713
				C830.339,581.65,832.069,577.028,832.755,570.94z"/>
			<path style="fill:#FF7BAC;" d="M913.81,629.778l2.051,3.516c-1.986,1.367-3.768,2.311-5.347,2.832
				c-1.579,0.521-3.312,0.781-5.2,0.781c-2.8,0-5.062-0.595-6.787-1.782c-1.726-1.188-3.304-3.426-4.736-6.714
				c-3.32,3.288-6.299,5.526-8.936,6.714s-5.615,1.782-8.936,1.782c-4.59,0-8.171-1.059-10.742-3.174
				c-2.572-2.115-3.857-4.801-3.857-8.057c0-4.915,2.376-8.854,7.129-11.816c3.809-2.344,12.158-4.688,25.049-7.031v-6.592
				c0-2.604-0.863-4.728-2.588-6.372c-1.726-1.644-4.037-2.466-6.934-2.466c-2.214,0-4.167,0.473-5.859,1.416
				c-1.14,0.619-1.709,1.237-1.709,1.855c0,0.326,0.211,0.814,0.635,1.465c0.911,1.465,1.367,2.914,1.367,4.346
				c0,1.823-0.603,3.296-1.807,4.419c-1.205,1.123-2.816,1.685-4.834,1.685c-2.148,0-3.874-0.61-5.176-1.831
				c-1.302-1.221-1.953-2.791-1.953-4.712c0-3.157,1.709-5.94,5.127-8.35c4.264-2.994,9.57-4.492,15.918-4.492
				c4.785,0,9.033,0.749,12.744,2.246c2.376,0.944,4.305,2.597,5.786,4.956c1.481,2.36,2.222,5.266,2.222,8.716v23.193
				c0,1.758,0.325,3.027,0.977,3.809c0.651,0.781,1.546,1.172,2.686,1.172C911.043,631.292,912.28,630.788,913.81,629.778z
				 M893.498,611.077c-6.966,0.944-11.678,2.401-14.136,4.37c-2.458,1.97-3.687,4.565-3.687,7.788c0,2.279,0.578,4.028,1.733,5.249
				c1.155,1.221,2.775,1.831,4.858,1.831c3.223,0,5.9-1.155,8.032-3.467c2.132-2.311,3.198-5.469,3.198-9.473V611.077z"/>
			<path style="fill:#FF7BAC;" d="M921.037,563.226l21.436-1.074v64.99c0,1.172,0.374,2.092,1.123,2.759
				c0.749,0.668,1.823,1.001,3.223,1.001h2.881v4.541H922.16v-4.541h3.125c1.432,0,2.498-0.382,3.198-1.148
				c0.7-0.765,1.05-1.93,1.05-3.494v-53.41c0-1.661-0.456-2.939-1.367-3.835c-0.912-0.896-2.148-1.345-3.711-1.345h-3.418V563.226z"
				/>
			<path style="fill:#FF7BAC;" d="M958.243,589.739l20.312-0.928v38.818c0,1.042,0.334,1.848,1.001,2.417
				c0.667,0.57,1.685,0.854,3.052,0.854h3.076v4.541h-27.441v-4.541h3.027c1.628,0,2.775-0.374,3.442-1.123
				c0.667-0.748,1.001-2.051,1.001-3.906v-26.465c0-1.66-0.48-2.945-1.44-3.857c-0.96-0.911-2.287-1.367-3.979-1.367h-2.051V589.739
				z M970.792,563.372c2.181,0,4.053,0.773,5.615,2.319c1.562,1.547,2.344,3.427,2.344,5.64c0,2.214-0.781,4.094-2.344,5.64
				c-1.562,1.547-3.435,2.319-5.615,2.319c-2.214,0-4.102-0.781-5.664-2.344s-2.344-3.434-2.344-5.615
				c0-2.213,0.781-4.093,2.344-5.64C966.69,564.146,968.578,563.372,970.792,563.372z"/>
			<path style="fill:#FF7BAC;" d="M1047.11,629.778l2.051,3.516c-1.985,1.367-3.768,2.311-5.347,2.832
				c-1.579,0.521-3.312,0.781-5.2,0.781c-2.8,0-5.062-0.595-6.787-1.782s-3.304-3.426-4.736-6.714
				c-3.32,3.288-6.299,5.526-8.936,6.714s-5.615,1.782-8.936,1.782c-4.59,0-8.171-1.059-10.742-3.174s-3.857-4.801-3.857-8.057
				c0-4.915,2.376-8.854,7.129-11.816c3.809-2.344,12.158-4.688,25.049-7.031v-6.592c0-2.604-0.862-4.728-2.588-6.372
				c-1.726-1.644-4.036-2.466-6.934-2.466c-2.214,0-4.167,0.473-5.859,1.416c-1.14,0.619-1.709,1.237-1.709,1.855
				c0,0.326,0.212,0.814,0.635,1.465c0.911,1.465,1.367,2.914,1.367,4.346c0,1.823-0.603,3.296-1.807,4.419
				s-2.815,1.685-4.834,1.685c-2.148,0-3.874-0.61-5.176-1.831s-1.953-2.791-1.953-4.712c0-3.157,1.709-5.94,5.127-8.35
				c4.265-2.994,9.57-4.492,15.918-4.492c4.785,0,9.033,0.749,12.744,2.246c2.376,0.944,4.305,2.597,5.786,4.956
				c1.481,2.36,2.222,5.266,2.222,8.716v23.193c0,1.758,0.325,3.027,0.977,3.809s1.546,1.172,2.686,1.172
				C1044.344,631.292,1045.58,630.788,1047.11,629.778z M1026.798,611.077c-6.966,0.944-11.678,2.401-14.136,4.37
				c-2.458,1.97-3.687,4.565-3.687,7.788c0,2.279,0.578,4.028,1.733,5.249s2.775,1.831,4.858,1.831c3.223,0,5.9-1.155,8.032-3.467
				c2.132-2.311,3.198-5.469,3.198-9.473V611.077z"/>
		</g>
	</g>
</g>
</svg>
