<?xml version="1.0" encoding="iso-8859-1"?>
<!-- Generator: Adobe Illustrator 30.3.0, SVG Export Plug-In . SVG Version: 9.03 Build 0)  -->
<svg version="1.1" xmlns="http://www.w3.org/2000/svg" xmlns:xlink="http://www.w3.org/1999/xlink" x="0px" y="0px"
	 viewBox="0 0 1920 1080" style="enable-background:new 0 0 1920 1080;" xml:space="preserve">
<g id="bgc" style="display:none;">
	<linearGradient id="SVGID_1_" gradientUnits="userSpaceOnUse" x1="-5" y1="542.8608" x2="1925" y2="542.8608">
		<stop  offset="0" style="stop-color:#FF7BAC"/>
		<stop  offset="0.0704" style="stop-color:#E06A98"/>
		<stop  offset="0.1995" style="stop-color:#AD4E77"/>
		<stop  offset="0.3312" style="stop-color:#82365B"/>
		<stop  offset="0.4632" style="stop-color:#5E2344"/>
		<stop  offset="0.5956" style="stop-color:#421332"/>
		<stop  offset="0.7287" style="stop-color:#2F0925"/>
		<stop  offset="0.8629" style="stop-color:#23021E"/>
		<stop  offset="1" style="stop-color:#1F001B"/>
	</linearGradient>
	
		<rect style="display:inline;fill:#EDE2AE;stroke:url(#SVGID_1_);stroke-width:10;stroke-miterlimit:10;" width="1920" height="1085.722"/>
</g>
<g id="Layer_3" style="display:none;">
	
		<linearGradient id="SVGID_00000150075541365960646810000013027122498116048543_" gradientUnits="userSpaceOnUse" x1="-0.25" y1="537.1646" x2="1920.25" y2="537.1646">
		<stop  offset="0" style="stop-color:#FF7BAC"/>
		<stop  offset="0.0704" style="stop-color:#E06A98"/>
		<stop  offset="0.1995" style="stop-color:#AD4E77"/>
		<stop  offset="0.3312" style="stop-color:#82365B"/>
		<stop  offset="0.4632" style="stop-color:#5E2344"/>
		<stop  offset="0.5956" style="stop-color:#421332"/>
		<stop  offset="0.7287" style="stop-color:#2F0925"/>
		<stop  offset="0.8629" style="stop-color:#23021E"/>
		<stop  offset="1" style="stop-color:#1F001B"/>
	</linearGradient>
	
		<rect style="display:inline;fill:#550026;stroke:url(#SVGID_00000150075541365960646810000013027122498116048543_);stroke-width:0.5;stroke-miterlimit:10;" width="1920" height="1074.329"/>
</g>
<g id="Layer_4">
	
		<linearGradient id="SVGID_00000084530979334971043640000001318855607286822071_" gradientUnits="userSpaceOnUse" x1="-0.25" y1="540" x2="1920.25" y2="540">
		<stop  offset="0" style="stop-color:#FF7BAC"/>
		<stop  offset="0.0704" style="stop-color:#E06A98"/>
		<stop  offset="0.1995" style="stop-color:#AD4E77"/>
		<stop  offset="0.3312" style="stop-color:#82365B"/>
		<stop  offset="0.4632" style="stop-color:#5E2344"/>
		<stop  offset="0.5956" style="stop-color:#421332"/>
		<stop  offset="0.7287" style="stop-color:#2F0925"/>
		<stop  offset="0.8629" style="stop-color:#23021E"/>
		<stop  offset="1" style="stop-color:#1F001B"/>
	</linearGradient>
	
		<rect style="fill:#FFF4D4;stroke:url(#SVGID_00000084530979334971043640000001318855607286822071_);stroke-width:0.5;stroke-miterlimit:10;" width="1920" height="1080"/>
</g>
<g id="Layer_1">
	<g>
		
			<linearGradient id="SVGID_00000029035688141482854440000001636365744836640901_" gradientUnits="userSpaceOnUse" x1="379.1318" y1="382.1685" x2="469.2214" y2="382.1685">
			<stop  offset="0" style="stop-color:#FF7BAC"/>
			<stop  offset="0.0704" style="stop-color:#E06A98"/>
			<stop  offset="0.1995" style="stop-color:#AD4E77"/>
			<stop  offset="0.3312" style="stop-color:#82365B"/>
			<stop  offset="0.4632" style="stop-color:#5E2344"/>
			<stop  offset="0.5956" style="stop-color:#421332"/>
			<stop  offset="0.7287" style="stop-color:#2F0925"/>
			<stop  offset="0.8629" style="stop-color:#23021E"/>
			<stop  offset="1" style="stop-color:#1F001B"/>
		</linearGradient>
		
			<path style="fill:#FF7BAC;stroke:url(#SVGID_00000029035688141482854440000001636365744836640901_);stroke-width:10;stroke-miterlimit:10;" d="
			M419.405,312.903h9.126v39.478h31.685v11.074h-31.685v61.011c0,4.034,1.029,7.162,3.087,9.383c2.059,2.222,4.77,3.332,8.133,3.332
			c9.606,0,14.686-8.921,15.235-26.763h9.126c-0.205,9.503-1.709,17.142-4.512,22.918c-2.804,5.777-6.819,10.237-12.048,13.381
			s-11.125,4.717-17.688,4.717c-5.742,0-10.715-1.163-14.919-3.486s-7.554-5.793-10.049-10.407
			c-2.496-4.614-3.743-9.621-3.743-15.022v-59.062h-17.021v-9.434c10.42-1.366,18.543-5.365,24.372-11.997
			C414.331,335.395,417.965,325.688,419.405,312.903z"/>
		
			<linearGradient id="SVGID_00000026875954442466027930000008265211647037005184_" gradientUnits="userSpaceOnUse" x1="474.3906" y1="399.2412" x2="600.5831" y2="399.2412">
			<stop  offset="0" style="stop-color:#FF7BAC"/>
			<stop  offset="0.0704" style="stop-color:#E06A98"/>
			<stop  offset="0.1995" style="stop-color:#AD4E77"/>
			<stop  offset="0.3312" style="stop-color:#82365B"/>
			<stop  offset="0.4632" style="stop-color:#5E2344"/>
			<stop  offset="0.5956" style="stop-color:#421332"/>
			<stop  offset="0.7287" style="stop-color:#2F0925"/>
			<stop  offset="0.8629" style="stop-color:#23021E"/>
			<stop  offset="1" style="stop-color:#1F001B"/>
		</linearGradient>
		
			<path style="fill:#FF7BAC;stroke:url(#SVGID_00000026875954442466027930000008265211647037005184_);stroke-width:10;stroke-miterlimit:10;" d="
			M589.62,436.463l4.307,7.383c-4.17,2.871-7.913,4.853-11.228,5.947c-3.316,1.093-6.957,1.641-10.92,1.641
			c-5.88,0-10.63-1.248-14.253-3.742c-3.624-2.495-6.939-7.194-9.946-14.1c-6.973,6.905-13.228,11.604-18.765,14.1
			c-5.537,2.494-11.792,3.742-18.765,3.742c-9.639,0-17.159-2.223-22.559-6.665c-5.401-4.442-8.101-10.082-8.101-16.919
			c0-10.321,4.989-18.593,14.971-24.814c7.998-4.922,25.532-9.844,52.603-14.766v-13.843c0-5.468-1.812-9.929-5.435-13.381
			c-3.624-3.451-8.477-5.179-14.561-5.179c-4.649,0-8.751,0.992-12.305,2.974c-2.394,1.3-3.589,2.599-3.589,3.896
			c0,0.685,0.444,1.71,1.333,3.076c1.913,3.076,2.871,6.119,2.871,9.126c0,3.829-1.266,6.922-3.794,9.28
			c-2.53,2.358-5.914,3.537-10.151,3.537c-4.512,0-8.136-1.281-10.869-3.845c-2.735-2.563-4.102-5.861-4.102-9.896
			c0-6.63,3.589-12.475,10.767-17.534c8.955-6.288,20.098-9.434,33.428-9.434c10.049,0,18.97,1.573,26.763,4.717
			c4.989,1.983,9.04,5.452,12.151,10.408c3.11,4.957,4.666,11.058,4.666,18.303v48.706c0,3.691,0.683,6.357,2.051,7.998
			c1.367,1.641,3.246,2.461,5.64,2.461C583.809,439.642,586.406,438.583,589.62,436.463z M546.964,397.19
			c-14.629,1.983-24.524,5.042-29.685,9.178c-5.162,4.137-7.742,9.587-7.742,16.354c0,4.786,1.213,8.46,3.64,11.023
			c2.426,2.563,5.827,3.845,10.203,3.845c6.768,0,12.39-2.426,16.868-7.28c4.477-4.853,6.716-11.484,6.716-19.893V397.19z"/>
		
			<linearGradient id="SVGID_00000016762821367133193250000003093778787783056286_" gradientUnits="userSpaceOnUse" x1="599.8984" y1="371.2743" x2="738.8931" y2="371.2743">
			<stop  offset="0" style="stop-color:#FF7BAC"/>
			<stop  offset="0.0704" style="stop-color:#E06A98"/>
			<stop  offset="0.1995" style="stop-color:#AD4E77"/>
			<stop  offset="0.3312" style="stop-color:#82365B"/>
			<stop  offset="0.4632" style="stop-color:#5E2344"/>
			<stop  offset="0.5956" style="stop-color:#421332"/>
			<stop  offset="0.7287" style="stop-color:#2F0925"/>
			<stop  offset="0.8629" style="stop-color:#23021E"/>
			<stop  offset="1" style="stop-color:#1F001B"/>
		</linearGradient>
		
			<path style="fill:#FF7BAC;stroke:url(#SVGID_00000016762821367133193250000003093778787783056286_);stroke-width:10;stroke-miterlimit:10;" d="
			M604.898,296.702l45.323-2.256v74.648c6.902-8.476,13.26-14.269,19.072-17.38c5.809-3.11,12.166-4.666,19.072-4.666
			c9.568,0,16.883,2.906,21.943,8.716c5.742,6.7,8.613,16.168,8.613,28.403v45.527c0,3.146,0.713,5.452,2.139,6.922
			c1.426,1.471,3.496,2.204,6.211,2.204h6.621v9.536h-57.832v-9.536h6.254c3.486,0,5.846-0.648,7.076-1.948
			c1.707-1.708,2.562-4.102,2.562-7.178v-44.707c0-6.425-1.727-11.535-5.178-15.329c-3.453-3.794-7.777-5.691-12.971-5.691
			c-6.428,0-11.965,2.701-16.611,8.101c-4.65,5.401-6.973,12.75-6.973,22.046v35.581c0,3.076,0.732,5.367,2.205,6.87
			c1.469,1.505,3.57,2.256,6.305,2.256h6.973v9.536h-59.677v-9.536h8.306c2.938,0,5.16-0.785,6.664-2.358
			c1.504-1.571,2.256-3.827,2.256-6.768V316.8c0-3.281-1.043-5.86-3.127-7.741c-2.086-1.88-4.871-2.82-8.357-2.82h-6.87V296.702z"/>
		
			<linearGradient id="SVGID_00000039823530396539516830000006104161441123878821_" gradientUnits="userSpaceOnUse" x1="739.3511" y1="400.0103" x2="813.5405" y2="400.0103">
			<stop  offset="0" style="stop-color:#FF7BAC"/>
			<stop  offset="0.0704" style="stop-color:#E06A98"/>
			<stop  offset="0.1995" style="stop-color:#AD4E77"/>
			<stop  offset="0.3312" style="stop-color:#82365B"/>
			<stop  offset="0.4632" style="stop-color:#5E2344"/>
			<stop  offset="0.5956" style="stop-color:#421332"/>
			<stop  offset="0.7287" style="stop-color:#2F0925"/>
			<stop  offset="0.8629" style="stop-color:#23021E"/>
			<stop  offset="1" style="stop-color:#1F001B"/>
		</linearGradient>
		
			<path style="fill:#FF7BAC;stroke:url(#SVGID_00000039823530396539516830000006104161441123878821_);stroke-width:10;stroke-miterlimit:10;" d="
			M744.351,390.32h64.189v19.38h-64.189V390.32z"/>
		
			<linearGradient id="SVGID_00000007387494794246727040000001173935894164541605_" gradientUnits="userSpaceOnUse" x1="813.5894" y1="371.2734" x2="883.7798" y2="371.2734">
			<stop  offset="0" style="stop-color:#FF7BAC"/>
			<stop  offset="0.0704" style="stop-color:#E06A98"/>
			<stop  offset="0.1995" style="stop-color:#AD4E77"/>
			<stop  offset="0.3312" style="stop-color:#82365B"/>
			<stop  offset="0.4632" style="stop-color:#5E2344"/>
			<stop  offset="0.5956" style="stop-color:#421332"/>
			<stop  offset="0.7287" style="stop-color:#2F0925"/>
			<stop  offset="0.8629" style="stop-color:#23021E"/>
			<stop  offset="1" style="stop-color:#1F001B"/>
		</linearGradient>
		
			<path style="fill:#FF7BAC;stroke:url(#SVGID_00000007387494794246727040000001173935894164541605_);stroke-width:10;stroke-miterlimit:10;" d="
			M818.589,296.702l45.015-2.256v136.479c0,2.461,0.785,4.394,2.358,5.794c1.571,1.401,3.827,2.102,6.768,2.102h6.05v9.536h-57.832
			v-9.536h6.562c3.007,0,5.245-0.803,6.717-2.411c1.469-1.606,2.204-4.054,2.204-7.338V316.91c0-3.487-0.958-6.173-2.871-8.054
			c-1.915-1.881-4.512-2.823-7.793-2.823h-7.178V296.702z"/>
		
			<linearGradient id="SVGID_00000086678289246633281410000011697303052456096413_" gradientUnits="userSpaceOnUse" x1="890.6987" y1="398.9336" x2="1002.5035" y2="398.9336">
			<stop  offset="0" style="stop-color:#FF7BAC"/>
			<stop  offset="0.0704" style="stop-color:#E06A98"/>
			<stop  offset="0.1995" style="stop-color:#AD4E77"/>
			<stop  offset="0.3312" style="stop-color:#82365B"/>
			<stop  offset="0.4632" style="stop-color:#5E2344"/>
			<stop  offset="0.5956" style="stop-color:#421332"/>
			<stop  offset="0.7287" style="stop-color:#2F0925"/>
			<stop  offset="0.8629" style="stop-color:#23021E"/>
			<stop  offset="1" style="stop-color:#1F001B"/>
		</linearGradient>
		
			<path style="fill:#FF7BAC;stroke:url(#SVGID_00000086678289246633281410000011697303052456096413_);stroke-width:10;stroke-miterlimit:10;" d="
			M994.444,400.984h-67.266c0.205,13.468,2.918,23.396,8.138,29.788c5.22,6.393,11.925,9.587,20.115,9.587
			c5.869,0,11.432-1.641,16.687-4.922s10.646-9.229,16.174-17.842l7.485,4.614c-5.812,10.254-12.459,17.585-19.943,21.995
			c-7.486,4.408-16.63,6.613-27.43,6.613c-15.724,0-28.438-4.784-38.145-14.355c-9.708-9.569-14.561-21.841-14.561-36.812
			s4.887-27.48,14.663-37.529c9.774-10.049,21.771-15.073,35.991-15.073c9.844,0,18.303,2.018,25.379,6.05
			c7.074,4.034,12.576,9.931,16.508,17.688C992.171,378.546,994.239,388.612,994.444,400.984z M927.178,391.653h32.013
			c3,0,5.149-0.751,6.445-2.256c1.295-1.503,1.943-4.237,1.943-8.203c0-7.929-1.808-14.063-5.422-18.405
			c-3.615-4.341-8.216-6.512-13.808-6.512c-6.613,0-11.677,2.94-15.188,8.818C929.649,370.976,927.656,379.828,927.178,391.653z"/>
		
			<linearGradient id="SVGID_00000049933157034417830970000000857656210577640078_" gradientUnits="userSpaceOnUse" x1="1011.2852" y1="398.9336" x2="1123.0895" y2="398.9336">
			<stop  offset="0" style="stop-color:#FF7BAC"/>
			<stop  offset="0.0704" style="stop-color:#E06A98"/>
			<stop  offset="0.1995" style="stop-color:#AD4E77"/>
			<stop  offset="0.3312" style="stop-color:#82365B"/>
			<stop  offset="0.4632" style="stop-color:#5E2344"/>
			<stop  offset="0.5956" style="stop-color:#421332"/>
			<stop  offset="0.7287" style="stop-color:#2F0925"/>
			<stop  offset="0.8629" style="stop-color:#23021E"/>
			<stop  offset="1" style="stop-color:#1F001B"/>
		</linearGradient>
		
			<path style="fill:#FF7BAC;stroke:url(#SVGID_00000049933157034417830970000000857656210577640078_);stroke-width:10;stroke-miterlimit:10;" d="
			M1115.03,400.984h-67.266c0.205,13.468,2.918,23.396,8.138,29.788c5.22,6.393,11.925,9.587,20.115,9.587
			c5.868,0,11.432-1.641,16.687-4.922s10.646-9.229,16.174-17.842l7.485,4.614c-5.812,10.254-12.459,17.585-19.943,21.995
			c-7.486,4.408-16.63,6.613-27.43,6.613c-15.724,0-28.438-4.784-38.145-14.355c-9.708-9.569-14.561-21.841-14.561-36.812
			s4.887-27.48,14.663-37.529c9.774-10.049,21.771-15.073,35.991-15.073c9.844,0,18.303,2.018,25.379,6.05
			c7.074,4.034,12.576,9.931,16.508,17.688C1112.757,378.546,1114.825,388.612,1115.03,400.984z M1047.765,391.653h32.013
			c3,0,5.148-0.751,6.444-2.256c1.295-1.503,1.943-4.237,1.943-8.203c0-7.929-1.808-14.063-5.422-18.405
			c-3.614-4.341-8.216-6.512-13.808-6.512c-6.613,0-11.677,2.94-15.188,8.818C1050.235,370.976,1048.242,379.828,1047.765,391.653z"
			/>
		
			<linearGradient id="SVGID_00000111875799536567743020000006032091071942959777_" gradientUnits="userSpaceOnUse" x1="1124.3857" y1="400.0103" x2="1198.5752" y2="400.0103">
			<stop  offset="0" style="stop-color:#FF7BAC"/>
			<stop  offset="0.0704" style="stop-color:#E06A98"/>
			<stop  offset="0.1995" style="stop-color:#AD4E77"/>
			<stop  offset="0.3312" style="stop-color:#82365B"/>
			<stop  offset="0.4632" style="stop-color:#5E2344"/>
			<stop  offset="0.5956" style="stop-color:#421332"/>
			<stop  offset="0.7287" style="stop-color:#2F0925"/>
			<stop  offset="0.8629" style="stop-color:#23021E"/>
			<stop  offset="1" style="stop-color:#1F001B"/>
		</linearGradient>
		
			<path style="fill:#FF7BAC;stroke:url(#SVGID_00000111875799536567743020000006032091071942959777_);stroke-width:10;stroke-miterlimit:10;" d="
			M1129.386,390.32h64.189v19.38h-64.189V390.32z"/>
		
			<linearGradient id="SVGID_00000080194941343297749530000007491802311058430899_" gradientUnits="userSpaceOnUse" x1="1199.5469" y1="400.0677" x2="1336.7979" y2="400.0677">
			<stop  offset="0" style="stop-color:#FF7BAC"/>
			<stop  offset="0.0704" style="stop-color:#E06A98"/>
			<stop  offset="0.1995" style="stop-color:#AD4E77"/>
			<stop  offset="0.3312" style="stop-color:#82365B"/>
			<stop  offset="0.4632" style="stop-color:#5E2344"/>
			<stop  offset="0.5956" style="stop-color:#421332"/>
			<stop  offset="0.7287" style="stop-color:#2F0925"/>
			<stop  offset="0.8629" style="stop-color:#23021E"/>
			<stop  offset="1" style="stop-color:#1F001B"/>
		</linearGradient>
		
			<path style="fill:#FF7BAC;stroke:url(#SVGID_00000080194941343297749530000007491802311058430899_);stroke-width:10;stroke-miterlimit:10;" d="
			M1204.547,352.381l42.861-2.461v63.984c0,5.947,1.598,10.648,4.795,14.1c3.196,3.452,7.347,5.178,12.447,5.178
			c7.21,0,12.975-2.871,17.294-8.613s6.479-12.475,6.479-20.2v-31.377c0-3.691-1.025-6.493-3.076-8.408
			c-2.051-1.913-4.854-2.871-8.408-2.871h-4.717v-9.331l43.374-2.461v77.725c0,3.486,1.077,6.222,3.229,8.203
			c2.154,1.983,5.007,2.974,8.562,2.974h4.409v9.536l-39.785,1.23c-1.641-6.835-2.599-14.15-2.871-21.943
			c-6.612,8.408-12.985,14.322-19.119,17.739c-6.135,3.417-12.506,5.127-19.117,5.127c-6.543,0-12.048-1.368-16.512-4.102
			c-4.465-2.733-8.026-7.075-10.685-13.022s-3.986-13.158-3.986-21.636v-38.145c0-4.169-1.061-7.16-3.179-8.972
			c-2.12-1.811-6.119-2.785-11.997-2.923V352.381z"/>
		
			<linearGradient id="SVGID_00000091010231236547461220000012068990212275161484_" gradientUnits="userSpaceOnUse" x1="1342.5889" y1="371.2743" x2="1481.583" y2="371.2743">
			<stop  offset="0" style="stop-color:#FF7BAC"/>
			<stop  offset="0.0704" style="stop-color:#E06A98"/>
			<stop  offset="0.1995" style="stop-color:#AD4E77"/>
			<stop  offset="0.3312" style="stop-color:#82365B"/>
			<stop  offset="0.4632" style="stop-color:#5E2344"/>
			<stop  offset="0.5956" style="stop-color:#421332"/>
			<stop  offset="0.7287" style="stop-color:#2F0925"/>
			<stop  offset="0.8629" style="stop-color:#23021E"/>
			<stop  offset="1" style="stop-color:#1F001B"/>
		</linearGradient>
		
			<path style="fill:#FF7BAC;stroke:url(#SVGID_00000091010231236547461220000012068990212275161484_);stroke-width:10;stroke-miterlimit:10;" d="
			M1347.589,296.702l45.322-2.256v74.648c6.903-8.476,13.261-14.269,19.072-17.38c5.81-3.11,12.167-4.666,19.072-4.666
			c9.569,0,16.884,2.906,21.943,8.716c5.742,6.7,8.613,16.168,8.613,28.403v45.527c0,3.146,0.713,5.452,2.139,6.922
			c1.426,1.471,3.496,2.204,6.212,2.204h6.62v9.536h-57.832v-9.536h6.255c3.486,0,5.845-0.648,7.075-1.948
			c1.708-1.708,2.563-4.102,2.563-7.178v-44.707c0-6.425-1.728-11.535-5.179-15.329c-3.452-3.794-7.776-5.691-12.971-5.691
			c-6.427,0-11.964,2.701-16.611,8.101c-4.649,5.401-6.973,12.75-6.973,22.046v35.581c0,3.076,0.733,5.367,2.205,6.87
			c1.469,1.505,3.57,2.256,6.306,2.256h6.973v9.536h-59.678v-9.536h8.306c2.938,0,5.16-0.785,6.665-2.358
			c1.503-1.571,2.256-3.827,2.256-6.768V316.8c0-3.281-1.043-5.86-3.128-7.741c-2.086-1.88-4.87-2.82-8.356-2.82h-6.87V296.702z"/>
	</g>
	<rect x="832.81" y="472.911" style="fill:none;" width="502.532" height="134.177"/>
	<text transform="matrix(1 0 0 1 832.81 546.2098)" style="fill:#FF7BAC; font-family:'CenturySchoolbook-Bold'; font-size:100px;">talia</text>
</g>
</svg>
